<?xml version="1.0" encoding="UTF-8"?> <svg xmlns="http://www.w3.org/2000/svg" width="60" height="60"> <path fill="#363942" d="M44.8 30.56c0-3.6-1.2-6.9-3.22-9.54L38 4.22c-.14-.7-.75-1.18-1.46-1.18H21.46c-.7 0-1.32.5-1.47 1.2L16.4 21c-1.2 1.56-2.1 3.35-2.63 5.3H13c-1.9 0-3.42 1.62-3.42 3.62v1.9c0 2 1.53 3.63 3.42 3.63h.98c.55 1.7 1.4 3.27 2.46 4.66L20 56.78c.13.7.75 1.2 1.45 1.2h15.08c.7 0 1.32-.5 1.47-1.2l3.56-16.6c2.03-2.66 3.25-5.97 3.25-9.57zM22.7 5.96h12.64l2.43 11.44c-2.5-1.67-5.52-2.65-8.75-2.65-3.23 0-6.24.98-8.75 2.65L22.7 5.97zm6.3 11.8c7.07 0 12.8 5.74 12.8 12.8 0 2.95-1 5.65-2.66 7.8-.1.12-.2.24-.28.38-2.35 2.83-5.9 4.64-9.86 4.64-3.96 0-7.5-1.8-9.86-4.64-.08-.14-.17-.26-.28-.37-1.67-2.16-2.67-4.86-2.67-7.8 0-7.07 5.7-12.8 12.8-12.8zm-16 15.7c-.78 0-1.42-.72-1.42-1.62v-1.9c0-.9.64-1.63 1.42-1.63h.36c-.1.8-.18 1.5-.18 2.3 0 1 .1 1.98.28 2.9H13zm22.32 21.6H22.68l-2.4-11.32c2.5 1.66 5.5 2.63 8.72 2.63 3.23 0 6.22-.97 8.73-2.63l-2.4 11.34z"></path> <path fill="#363942" d="M28.05 30.82l.03.14.08.1.15.22h.07l4.17 3.92c.2.18.44.27.7.27.25 0 .52-.1.7-.32.4-.4.37-1.03-.03-1.4L30 30.12v-7.26c0-.56-.45-1-1-1s-1 .44-1 1v7.7c0 .1.03.17.05.25z"></path> </svg> 