<?xml version="1.0" encoding="UTF-8"?> <svg xmlns="http://www.w3.org/2000/svg" width="60" height="60"> <path fill="#363942" d="M52.605 28.077l-11.033-8.673c-.264-.208-.59-.32-.927-.32H16.348c-.336 0-.663.112-.927.32L4.39 28.077c-.36.284-.573.72-.573 1.18v1.735c0 .434.188.847.515 1.13L27.254 52.09c.087.183.213.348.404.453.153.084.32.124.482.124.06 0 .12-.013.18-.024.06.01.117.024.178.024.16 0 .32-.038.47-.118.023-.02.036-.04.057-.05.208-.06.41-.15.582-.3l23.058-20.08c.327-.29.515-.7.515-1.13v-1.74c-.002-.46-.213-.898-.575-1.18zm-40.56-2.203L14.73 29H8.067l3.977-3.126zm16.45-3.936h.26L37.27 29H19.723l8.514-7.063h.26zm-.353 26.947L18.575 31h19.82l-9.988 18.115-.265-.23zM16.306 31l7.59 14.186L7.606 31h8.7zm24.372 0h8.708L32.633 45.59 40.678 31zm1.586-2l2.684-3.126L48.925 29h-6.66zm1.11-4.363l-3.41 3.973-8.035-6.672h8.19l3.25 2.7zm-26.507-2.7h8.198L17.03 28.61l-3.412-3.973 3.25-2.7zm22.405-8.973c.01 0 .023-.003.035-.003 1.072.04 2.965 1.94 2.965 3 0 .55.447 1 1 1s1-.45 1-1c0-1.13 2.14-2.95 2.97-2.99l.03.006c.553 0 1-.45 1-1v-.01c0-.552-.447-1-1-1l-.03.003c-.83-.04-2.97-1.865-2.97-2.993 0-.55-.447-1-1-1s-1 .45-1 1c0 1.056-1.894 2.956-2.965 2.994l-.035-.002c-.553 0-1 .45-1 1v.01c0 .55.447 1 1 1zm4.022-2.524c.44.572.99 1.095 1.564 1.518-.575.424-1.123.946-1.564 1.518-.422-.57-.95-1.093-1.52-1.518.57-.424 1.1-.947 1.52-1.518zm12.392 8.86c0-.55-.447-1-1-1l-.02.003c-.58-.052-1.984-1.365-1.984-1.998 0-.552-.447-1-1-1s-1 .448-1 1c0 .648-1.315 1.967-1.978 1.998l-.026-.002c-.553 0-1 .45-1 1v.01c0 .55.447 1 1 1h.026c.663.03 1.978 1.35 1.978 2 0 .55.447 1 1 1s1-.45 1-1c0-.63 1.406-1.942 1.983-2h.02c.275 0 .518-.11.694-.29.18-.18.3-.43.3-.712zm-3.982.743c-.22-.267-.472-.515-.737-.738.266-.223.516-.47.737-.738.23.268.49.515.762.738-.272.222-.53.47-.762.738z"></path> </svg> 