<?xml version="1.0" encoding="UTF-8"?> <svg xmlns="http://www.w3.org/2000/svg" width="60" height="60"> <path fill="#363942" d="M34.4 23.86l4.2-3.66c.2-.2.33-.47.33-.76v-.67c0-.28-.12-.55-.33-.74l-4.25-3.72c-.18-.1-.42-.2-.67-.2h-9.36c-.25 0-.5.1-.67.27L19.4 18.1c-.2.2-.33.45-.33.73v.67c0 .3.12.56.34.75l4.28 3.66C16.6 26.16 11.5 32.75 11.5 40.5 11.5 50.15 19.35 58 29 58s17.5-7.85 17.5-17.5c0-7.77-5.1-14.36-12.1-16.64zM24.76 16h8.6l2.28 2.06h-13.3L24.77 16zm-2.47 4h13.4L32 23.28c-.97-.17-1.97-.28-3-.28s-2.03.1-3 .28L22.3 20zM29 55c-8 0-14.5-6.5-14.5-14.5S21 26 29 26s14.5 6.5 14.5 14.5S37 55 29 55zm0-44.12c.55 0 1-.45 1-1V3c0-.55-.45-1-1-1s-1 .45-1 1v6.88c0 .55.45 1 1 1zm-14.84-.14l5.96 3.44c.16.1.33.13.5.13.34 0 .68-.1.86-.5.28-.4.12-1.02-.36-1.3L15.16 9c-.48-.27-1.1-.1-1.36.38-.28.47-.1 1.08.36 1.36zm22.36 3.06c.18.33.52.5.86.5.17 0 .34-.03.5-.12l5.95-3.44c.48-.28.65-.9.37-1.37-.28-.47-.9-.64-1.37-.36l-5.95 3.5c-.48.28-.64.9-.37 1.37zm-12.88-2.94c.18.32.52.5.86.5.17 0 .35-.05.5-.14.48-.27.65-.9.37-1.36L23.43 6.5c-.28-.48-.9-.64-1.36-.37-.48.28-.65.9-.37 1.37l1.94 3.36zm9.36.36c.15.1.33.14.5.14.34 0 .68-.18.86-.5L36.3 7.5c.28-.48.1-1.1-.36-1.36-.48-.28-1.1-.12-1.37.36l-1.94 3.36c-.28.48-.1 1.1.37 1.36z"></path> </svg> 