<?xml version="1.0" encoding="UTF-8"?>
<!DOCTYPE svg PUBLIC "-//W3C//DTD SVG 1.1//EN" "http://www.w3.org/Graphics/SVG/1.1/DTD/svg11.dtd">
<!-- Creator: CorelDRAW X8 -->
<svg xmlns="http://www.w3.org/2000/svg" xml:space="preserve" width="115mm" height="29.301mm" version="1.1" style="shape-rendering:geometricPrecision; text-rendering:geometricPrecision; image-rendering:optimizeQuality; fill-rule:evenodd; clip-rule:evenodd"
viewBox="0 0 11500 2930"
 xmlns:xlink="http://www.w3.org/1999/xlink">
 <defs>
  <style type="text/css">
   <![CDATA[
    .fil1 {fill:#fff;fill-rule:nonzero}
    .fil0 {fill:#fff;fill-rule:nonzero}
   ]]>
  </style>
 </defs>
 <g id="Layer_x0020_1">
  <metadata id="CorelCorpID_0Corel-Layer"/>
  <g id="_88904448">
   <path class="fil0" d="M5258 382c-1,-67 -10,-118 -25,-153 -15,-36 -41,-60 -77,-74 -36,-14 -88,-21 -157,-21l-438 0c-64,0 -115,7 -153,22 -37,15 -65,40 -83,75 -18,36 -28,86 -31,151l0 319c2,49 7,88 17,120 9,30 24,55 45,73 21,18 48,31 81,38 33,8 74,11 124,11l438 0c72,0 126,-7 162,-20 35,-13 60,-37 74,-70 14,-34 22,-84 23,-152l0 -319zm103 319c0,72 -7,130 -20,175 -13,44 -33,79 -61,103 -27,25 -63,41 -107,51 -45,10 -102,14 -172,14l-438 0c-69,0 -126,-6 -173,-18 -47,-12 -85,-31 -114,-57 -29,-27 -50,-61 -64,-105 -13,-44 -21,-98 -21,-163l0 -121 -283 0 0 464 -104 0 0 -1000 104 0 0 435 283 0 0 -90c1,-86 13,-155 36,-207 23,-52 61,-90 115,-113 54,-24 127,-37 221,-37l438 0c85,0 153,10 205,30 51,20 89,55 115,107 26,52 40,125 40,221l0 311z"/>
   <path class="fil0" d="M5622 571l0 372 707 0c69,0 121,-15 156,-46 35,-30 52,-79 52,-147 0,-64 -19,-110 -55,-137 -36,-28 -90,-42 -162,-42l-698 0zm0 -426l0 325 681 0c72,0 123,-11 155,-33 33,-23 49,-64 49,-125 0,-57 -16,-98 -47,-126 -32,-27 -84,-41 -157,-41l-681 0zm-103 899l0 -1000 744 0c119,0 207,21 264,63 56,42 85,107 85,193 0,69 -13,119 -38,152 -26,33 -55,54 -88,64 19,5 39,14 62,29 24,15 45,39 64,73 19,35 28,78 28,132 0,72 -13,130 -39,174 -26,43 -65,74 -116,93 -52,18 -117,27 -196,27l-770 0z"/>
   <polygon class="fil0" points="6798,1044 6798,44 7682,44 7682,145 6902,145 6902,477 7664,477 7664,578 6902,578 6902,943 7685,943 7685,1044 "/>
   <path class="fil0" d="M8889 148l-814 0 0 660c0,85 -20,146 -59,182 -39,36 -96,54 -169,54l-43 0 0 -101 55 0c30,0 56,-10 79,-31 22,-21 33,-56 33,-105l0 -763 1022 0 0 1000 -104 0 0 -896z"/>
   <polygon class="fil0" points="10152,1044 10152,122 10114,122 9320,1044 9152,1044 9152,44 9255,44 9255,967 9264,967 10056,44 10256,44 10256,1044 "/>
   <path class="fil0" d="M10529 530l603 0c56,0 100,-4 130,-13 30,-9 52,-27 65,-52 14,-24 21,-62 21,-112 0,-77 -16,-131 -48,-162 -31,-31 -84,-46 -158,-46l-613 0 0 385zm-104 513l0 -999 675 0c84,0 151,10 202,30 52,21 89,53 113,99 25,45 36,105 36,180 0,74 -11,131 -34,171 -24,41 -60,68 -110,84 -50,16 -119,24 -206,24l-572 0 0 411 -104 0z"/>
   <path class="fil1" d="M4981 2842l-639 0c-131,0 -235,-17 -313,-51 -78,-34 -134,-89 -169,-164 -36,-75 -54,-177 -56,-306l0 -424c2,-129 20,-233 56,-310 35,-77 92,-134 170,-170 78,-35 182,-53 312,-53l639 0c352,0 529,139 529,416l-151 0c0,-57 -12,-105 -35,-145 -23,-39 -63,-70 -118,-91 -57,-22 -131,-32 -223,-32l-639 0c-101,0 -179,11 -234,34 -56,23 -96,62 -119,118 -24,55 -36,133 -36,233l0 424c0,73 7,134 21,182 13,47 35,84 65,112 30,28 70,48 118,60 49,13 111,19 185,19l639 0c136,0 233,-21 290,-64 57,-42 86,-111 86,-204l151 0c0,92 -18,169 -53,231 -35,61 -91,107 -170,138 -78,31 -180,47 -306,47z"/>
   <path class="fil1" d="M7293 1873c-1,-99 -13,-174 -35,-224 -22,-51 -60,-87 -112,-107 -52,-20 -128,-30 -228,-30l-638 0c-93,0 -168,10 -223,31 -54,22 -95,59 -122,111 -26,53 -41,126 -43,219l0 465c1,70 8,128 23,174 14,45 36,81 67,107 30,26 69,44 117,55 48,11 109,16 181,16l638 0c105,0 183,-9 235,-29 52,-19 88,-53 108,-101 20,-49 31,-123 32,-222l0 -465zm151 465c0,104 -10,189 -29,254 -18,65 -47,115 -88,151 -40,35 -93,60 -157,74 -65,14 -148,21 -250,21l-638 0c-99,0 -183,-9 -251,-26 -69,-18 -124,-46 -166,-85 -42,-38 -73,-89 -93,-152 -20,-64 -30,-143 -31,-237l0 -454c1,-95 11,-175 29,-241 19,-65 49,-118 90,-159 41,-41 96,-71 165,-91 68,-20 154,-29 257,-29l638 0c124,0 223,14 297,43 75,28 132,81 169,156 38,76 57,183 58,321l0 454z"/>
   <path class="fil1" d="M8778 1643l0 905 443 0c98,0 175,-10 230,-30 55,-19 95,-55 120,-105 25,-50 37,-122 37,-217l0 -191c0,-93 -13,-165 -39,-218 -27,-53 -68,-90 -125,-112 -56,-21 -131,-32 -223,-32l-443 0zm-151 0l-441 0c-72,0 -131,6 -178,18 -47,12 -86,32 -116,59 -31,28 -54,64 -69,110 -15,46 -23,105 -26,175l0 191c2,70 9,128 23,173 14,45 36,81 66,107 31,27 70,45 118,56 48,11 109,16 182,16l441 0 0 -905zm0 -278l151 0 0 130 441 0c135,0 242,19 321,57 79,38 135,95 169,171 34,76 51,173 51,293l0 180c0,126 -18,225 -53,297 -36,73 -93,125 -171,156 -78,31 -184,47 -317,47l-441 0 0 142 -151 0 0 -142 -441 0c-101,0 -186,-9 -253,-26 -67,-17 -122,-45 -164,-84 -42,-38 -73,-89 -93,-153 -20,-63 -31,-142 -32,-237l0 -180c1,-95 11,-175 30,-240 18,-65 48,-118 89,-160 41,-41 96,-72 165,-91 68,-20 154,-30 258,-30l441 0 0 -130z"/>
   <polygon class="fil1" points="9931,1380 11500,1380 11500,1528 10788,1528 10788,2838 10637,2838 10637,1528 9931,1528 "/>
   <path class="fil0" d="M2616 2577c53,89 138,89 189,-1l514 -908c51,-90 8,-163 -95,-162l-1043 8c-104,1 -146,75 -93,164l528 899z"/>
   <path class="fil0" d="M2128 1183c-50,91 -6,163 97,161l1044 -20c103,-2 144,-76 91,-165l-540 -893c-54,-89 -138,-87 -188,3l-504 914z"/>
   <path class="fil0" d="M1787 1074c53,89 137,87 188,-3l512 -909c51,-90 7,-163 -96,-162l-1043 11c-104,2 -146,76 -93,164l532 899z"/>
   <path class="fil1" d="M2364 2839c103,-1 145,-74 93,-164l-528 -900c-52,-90 -137,-89 -188,1l-516 907c-51,90 -8,163 95,162l1044 -6z"/>
   <path class="fil1" d="M701 2862c51,90 135,91 188,2l693 -1184c52,-90 10,-163 -93,-164l-1372 -8c-104,-1 -147,73 -95,162l679 1192z"/>
   <path class="fil1" d="M1508 1345c103,0 145,-74 93,-163l-524 -902c-52,-90 -137,-89 -188,0l-520 906c-51,89 -8,163 95,162l1044 -3z"/>
  </g>
 </g>
</svg>
