<svg xmlns="http://www.w3.org/2000/svg" fill-rule="" clip-rule="" image-rendering="optimizeQuality" shape-rendering="geometricPrecision" text-rendering="geometricPrecision" viewBox="0 0 11500 2930">
  <defs/>
  <g id="Layer_x0020_1">
    <g id="_88904448">
      <path d="M5258 382c-1-67-10-118-25-153-15-36-41-60-77-74s-88-21-157-21h-438c-64 0-115 7-153 22-37 15-65 40-83 75-18 36-28 86-31 151v319c2 49 7 88 17 120 9 30 24 55 45 73s48 31 81 38c33 8 74 11 124 11h438c72 0 126-7 162-20 35-13 60-37 74-70 14-34 22-84 23-152V382zm103 319c0 72-7 130-20 175-13 44-33 79-61 103-27 25-63 41-107 51-45 10-102 14-172 14h-438c-69 0-126-6-173-18s-85-31-114-57c-29-27-50-61-64-105-13-44-21-98-21-163V580h-283v464h-104V44h104v435h283v-90c1-86 13-155 36-207s61-90 115-113c54-24 127-37 221-37h438c85 0 153 10 205 30 51 20 89 55 115 107s40 125 40 221v311zM5622 571v372h707c69 0 121-15 156-46 35-30 52-79 52-147 0-64-19-110-55-137-36-28-90-42-162-42h-698zm0-426v325h681c72 0 123-11 155-33 33-23 49-64 49-125 0-57-16-98-47-126-32-27-84-41-157-41h-681zm-103 899V44h744c119 0 207 21 264 63 56 42 85 107 85 193 0 69-13 119-38 152-26 33-55 54-88 64 19 5 39 14 62 29 24 15 45 39 64 73 19 35 28 78 28 132 0 72-13 130-39 174-26 43-65 74-116 93-52 18-117 27-196 27h-770zM6798 1044V44h884v101h-780v332h762v101h-762v365h783v101zM8889 148h-814v660c0 85-20 146-59 182s-96 54-169 54h-43V943h55c30 0 56-10 79-31 22-21 33-56 33-105V44h1022v1000h-104V148zM10152 1044V122h-38l-794 922h-168V44h103v923h9l792-923h200v1000zM10529 530h603c56 0 100-4 130-13s52-27 65-52c14-24 21-62 21-112 0-77-16-131-48-162-31-31-84-46-158-46h-613v385zm-104 513V44h675c84 0 151 10 202 30 52 21 89 53 113 99 25 45 36 105 36 180 0 74-11 131-34 171-24 41-60 68-110 84s-119 24-206 24h-572v411h-104z" class="fil0"/>
      <path d="M4981 2842h-639c-131 0-235-17-313-51s-134-89-169-164c-36-75-54-177-56-306v-424c2-129 20-233 56-310 35-77 92-134 170-170 78-35 182-53 312-53h639c352 0 529 139 529 416h-151c0-57-12-105-35-145-23-39-63-70-118-91-57-22-131-32-223-32h-639c-101 0-179 11-234 34-56 23-96 62-119 118-24 55-36 133-36 233v424c0 73 7 134 21 182 13 47 35 84 65 112s70 48 118 60c49 13 111 19 185 19h639c136 0 233-21 290-64 57-42 86-111 86-204h151c0 92-18 169-53 231-35 61-91 107-170 138-78 31-180 47-306 47zM7293 1873c-1-99-13-174-35-224-22-51-60-87-112-107s-128-30-228-30h-638c-93 0-168 10-223 31-54 22-95 59-122 111-26 53-41 126-43 219v465c1 70 8 128 23 174 14 45 36 81 67 107 30 26 69 44 117 55s109 16 181 16h638c105 0 183-9 235-29 52-19 88-53 108-101 20-49 31-123 32-222v-465zm151 465c0 104-10 189-29 254-18 65-47 115-88 151-40 35-93 60-157 74-65 14-148 21-250 21h-638c-99 0-183-9-251-26-69-18-124-46-166-85-42-38-73-89-93-152-20-64-30-143-31-237v-454c1-95 11-175 29-241 19-65 49-118 90-159s96-71 165-91c68-20 154-29 257-29h638c124 0 223 14 297 43 75 28 132 81 169 156 38 76 57 183 58 321v454zM8778 1643v905h443c98 0 175-10 230-30 55-19 95-55 120-105s37-122 37-217v-191c0-93-13-165-39-218-27-53-68-90-125-112-56-21-131-32-223-32h-443zm-151 0h-441c-72 0-131 6-178 18s-86 32-116 59c-31 28-54 64-69 110s-23 105-26 175v191c2 70 9 128 23 173s36 81 66 107c31 27 70 45 118 56s109 16 182 16h441v-905zm0-278h151v130h441c135 0 242 19 321 57s135 95 169 171 51 173 51 293v180c0 126-18 225-53 297-36 73-93 125-171 156s-184 47-317 47h-441v142h-151v-142h-441c-101 0-186-9-253-26s-122-45-164-84c-42-38-73-89-93-153-20-63-31-142-32-237v-180c1-95 11-175 30-240 18-65 48-118 89-160 41-41 96-72 165-91 68-20 154-30 258-30h441v-130zM9931 1380h1569v148h-712v1310h-151V1528h-706z" class="fil1"/>
      <path d="M2616 2577c53 89 138 89 189-1l514-908c51-90 8-163-95-162l-1043 8c-104 1-146 75-93 164l528 899zM2128 1183c-50 91-6 163 97 161l1044-20c103-2 144-76 91-165l-540-893c-54-89-138-87-188 3l-504 914zM1787 1074c53 89 137 87 188-3l512-909c51-90 7-163-96-162L1348 11c-104 2-146 76-93 164l532 899z" class="fil0"/>
      <path d="M2364 2839c103-1 145-74 93-164l-528-900c-52-90-137-89-188 1l-516 907c-51 90-8 163 95 162l1044-6zM701 2862c51 90 135 91 188 2l693-1184c52-90 10-163-93-164l-1372-8c-104-1-147 73-95 162l679 1192zM1508 1345c103 0 145-74 93-163l-524-902c-52-90-137-89-188 0l-520 906c-51 89-8 163 95 162l1044-3z" class="fil1"/>
    </g>
  </g>
</svg>
