<?xml version="1.0" encoding="iso-8859-1"?>
<svg xmlns="http://www.w3.org/2000/svg" width="90" height="90">
  <path d="M90 43.8a44 44 0 0 1-65.5 38.4L0 90l8-23.5A44 44 0 0 1 45.8 0 44 44 0 0 1 90 43.8zM45.8 7A37 37 0 0 0 8.7 43.8c0 8.1 2.6 15.6 7 21.7L11.1 79l14.3-4.5A37.1 37.1 0 0 0 83 43.8 37 37 0 0 0 45.8 7zm22.3 47c-.2-.5-1-.8-2-1.3-1.1-.6-6.5-3.2-7.4-3.5-1-.4-1.8-.5-2.5.5a62 62 0 0 1-3.4 4.2c-.6.8-1.3.8-2.4.3-1-.5-4.5-1.7-8.7-5.3a32.4 32.4 0 0 1-6-7.5c-.6-1 0-1.6.5-2.2.5-.4 1-1.2 1.6-1.8l1-1.8c.5-.7.3-1.4 0-2l-3.3-7.9c-1-2.1-1.8-1.8-2.5-1.8h-2a4 4 0 0 0-3 1.3c-1 1-3.7 3.6-3.7 9 0 5.2 3.8 10.3 4.4 11 .5.8 7.5 12 18.5 16.3 11 4.3 11 2.8 13 2.7 2-.2 6.4-2.6 7.3-5.2.9-2.5.9-4.6.6-5z"/>
</svg>
